{"title":"Flash Gordon","uid":7239944,"size":2206805674,"categoryP":"video","categoryS":"hd___movies","magnet":"?xt=urn:btih:ce18955a3c8f0058719b8e02bf0caaefdf488347&amp;dn=Flash+Gordon&amp;tr=udp%3A%2F%2Ftracker.openbittorrent.com%3A80&amp;tr=udp%3A%2F%2Fopen.demonii.com%3A1337&amp;tr=udp%3A%2F%2Ftracker.coppersurfer.tk%3A6969&amp;tr=udp%3A%2F%2Fexodus.desync.com%3A6969","seeders":0,"leechers":0,"uploader":"fuligem","files":2,"time":1336105254,"description":"Format : AVI\n      Format/Info : Audio Video Interleave\n      Format profile : OpenDML\n      File size : 2.06 GiB\n      Duration : 4h 49mn\n      Overall bit rate : 1 017 Kbps\n      Writing application : Lavf53.24.2\n   Video #0\n      ID : 0\n      Format : MPEG-4 Visual\n      Format profile : Simple@L1\n      Format settings, BVOP : No\n      Format settings, QPel : No\n      Format settings, GMC : No warppoints\n      Format settings, Matrix : Default (H.263)\n      Codec ID : DIVX\n      Codec ID/Info : Project Mayo\n      Codec ID/Hint : DivX 4\n      Duration : 4h 49mn\n      Bit rate : 963 Kbps\n      Width : 1 280 pixels\n      Height : 720 pixels\n      Display aspect ratio : 16:9\n      Frame rate : 24.000 fps\n      Resolution : 24 bits\n      Colorimetry : 4:2:0\n      Scan type : Progressive\n      Bits/(Pixel*Frame) : 0.044\n      Stream size : 1.95 GiB (95%)\n      Writing library : Lavc53.42.4\n   Audio #1\n      ID : 1\n      Format : MPEG Audio\n      Format version : Version 1\n      Format profile : Layer 3\n      Codec ID : 55\n      Codec ID/Hint : MP3\n      Duration : 1h 51mn\n      Bit rate mode : Constant\n      Bit rate : 128 Kbps\n      Channel(s) : 2 channels\n      Sampling rate : 44.1 KHz\n      Resolution : 16 bits\n      Stream size : 102 MiB (5%)\n      Alignment : Aligned on interleaves\n      Interleave, duration : 26 ms (0.63 video frame)\n      Interleave, preload duration : 52 ms\n      Writing library : LAME3.99.3","torrent":{"xt":"urn:btih:ce18955a3c8f0058719b8e02bf0caaefdf488347","amp;dn":"Flash+Gordon","amp;tr":["udp%3A%2F%2Ftracker.openbittorrent.com%3A80","udp%3A%2F%2Fopen.demonii.com%3A1337","udp%3A%2F%2Ftracker.coppersurfer.tk%3A6969","udp%3A%2F%2Fexodus.desync.com%3A6969"],"infoHash":"ce18955a3c8f0058719b8e02bf0caaefdf488347","infoHashBuffer":{"type":"Buffer","data":[206,24,149,90,60,143,0,88,113,155,142,2,191,12,170,239,223,72,131,71]},"announce":[],"urlList":[]}}